<?xml version="1.0" encoding="UTF-8" standalone="no"?>
<!DOCTYPE svg PUBLIC "-//W3C//DTD SVG 1.1//EN" "http://www.w3.org/Graphics/SVG/1.1/DTD/svg11.dtd">
<svg width="100%" height="100%" viewBox="0 0 500 500" version="1.1" xmlns="http://www.w3.org/2000/svg" xmlns:xlink="http://www.w3.org/1999/xlink" xml:space="preserve" xmlns:serif="http://www.serif.com/" style="fill-rule:evenodd;clip-rule:evenodd;">
    <g>
        <g>
            <path d="M250,106.065L250,200.759" style="fill:none;fill-rule:nonzero;stroke:black;stroke-width:6px;"/>
            <path d="M199.039,299.241L190.873,307.132C182.706,315.023 166.372,330.805 158.206,346.588C150.039,362.37 150.039,378.152 150.039,386.043L150.039,393.935" style="fill:none;fill-rule:nonzero;stroke:black;stroke-width:6px;"/>
            <path d="M300.961,299.241L309.127,307.132C317.294,315.023 333.628,330.805 341.794,346.588C349.961,362.37 349.961,378.152 349.961,386.043L349.961,393.935" style="fill:none;fill-rule:nonzero;stroke:black;stroke-width:6px;"/>
        </g>
        <g>
            <path d="M302.614,13.584C302.614,10.272 299.926,7.584 296.614,7.584L203.386,7.584C200.074,7.584 197.386,10.272 197.386,13.584L197.386,100.065C197.386,103.377 200.074,106.065 203.386,106.065L296.614,106.065C299.926,106.065 302.614,103.377 302.614,100.065L302.614,13.584Z" style="fill:rgb(168,246,181);stroke:black;stroke-width:6px;"/>
        </g>
        <g>
            <path d="M202.653,399.935C202.653,396.623 199.965,393.935 196.653,393.935L103.425,393.935C100.113,393.935 97.425,396.623 97.425,399.935L97.425,486.416C97.425,489.728 100.113,492.416 103.425,492.416L196.653,492.416C199.965,492.416 202.653,489.728 202.653,486.416L202.653,399.935Z" style="fill:white;stroke:black;stroke-width:6px;"/>
        </g>
        <g>
            <path d="M402.575,399.935C402.575,396.623 399.887,393.935 396.575,393.935L303.347,393.935C300.035,393.935 297.347,396.623 297.347,399.935L297.347,486.416C297.347,489.728 300.035,492.416 303.347,492.416L396.575,492.416C399.887,492.416 402.575,489.728 402.575,486.416L402.575,399.935Z" style="fill:rgb(249,186,182);stroke:black;stroke-width:6px;"/>
        </g>
        <g>
            <path d="M321.346,206.759C321.346,203.448 318.657,200.759 315.346,200.759L184.654,200.759C181.343,200.759 178.654,203.448 178.654,206.759L178.654,293.241C178.654,296.552 181.343,299.241 184.654,299.241L315.346,299.241C318.657,299.241 321.346,296.552 321.346,293.241L321.346,206.759Z" style="fill:rgb(250,250,250);stroke:black;stroke-width:6px;"/>
        </g>
    </g>
</svg>
